<svg width="32" height="32" xmlns="http://www.w3.org/2000/svg">
 <title/>

 <g>
  <title>background</title>
  <rect fill="none" id="canvas_background" height="402" width="582" y="-1" x="-1"/>
 </g>
 <g>
  <title>Layer 1</title>
  <path fill="#f4f9f9" id="svg_1" d="m20.45,13.32a1,1 0 0 0 -0.57,1.3a4,4 0 1 1 -2.31,-2.3a1,1 0 1 0 0.71,-1.87a6,6 0 0 0 -6.37,9.85a6,6 0 0 0 8.48,0a6,6 0 0 0 1.36,-6.41a1,1 0 0 0 -1.3,-0.57z"/>
  <circle fill="#f4f9f9" id="svg_2" r="1" cy="9" cx="23"/>
  <path fill="#f4f9f9" id="svg_3" d="m28,9a5,5 0 0 0 -4.9,-5l0,0a77.11,77.11 0 0 0 -14.1,0a5,5 0 0 0 -5,4.92a91.91,91.91 0 0 0 0,14.08a5,5 0 0 0 4.9,5l0,0c2.36,0.22 4.73,0.34 7.1,0.34s4.71,-0.11 7.05,-0.34a5,5 0 0 0 4.95,-4.92a87.09,87.09 0 0 0 0,-14.08zm-2,14a3,3 0 0 1 -3,3l-0.1,0a71.73,71.73 0 0 1 -13.9,0a3,3 0 0 1 -3,-3.08a92.4,92.4 0 0 1 0,-13.92a3,3 0 0 1 3.09,-3q3.44,-0.31 6.9,-0.32t7.01,0.32a3,3 0 0 1 3,3.08a85.13,85.13 0 0 1 0,13.92z"/>
 </g>
</svg>